<?xml version="1.0" encoding="UTF-8"?>
<svg xmlns="http://www.w3.org/2000/svg" version="1.1" width="500" height="500" viewBox="0 0 500 500"><rect x="0" y="0" width="500" height="500" fill="#ffffff"/><g transform="scale(15.152)"><g transform="translate(0,0)"><g><g transform="translate(3.5,3.5)"><path fill-rule="evenodd" d="M-3.5 -3.5L-3.5 3.5L3.5 3.5L3.5 -3.5ZM-2.5 -2.5L-2.5 2.5L2.5 2.5L2.5 -2.5Z" fill="#61c4f5"/><path fill-rule="evenodd" d="M-1.5 -1.5L-1.5 1.5L1.5 1.5L1.5 -1.5Z" fill="#28c6e6"/></g></g><g><g transform="translate(29.5,3.5)"><g transform="rotate(90)"><path fill-rule="evenodd" d="M-3.5 -3.5L-3.5 3.5L3.5 3.5L3.5 -3.5ZM-2.5 -2.5L-2.5 2.5L2.5 2.5L2.5 -2.5Z" fill="#61c4f5"/><path fill-rule="evenodd" d="M-1.5 -1.5L-1.5 1.5L1.5 1.5L1.5 -1.5Z" fill="#28c6e6"/></g></g></g><g><g transform="translate(3.5,29.5)"><g transform="rotate(-90)"><path fill-rule="evenodd" d="M-3.5 -3.5L-3.5 3.5L3.5 3.5L3.5 -3.5ZM-2.5 -2.5L-2.5 2.5L2.5 2.5L2.5 -2.5Z" fill="#61c4f5"/><path fill-rule="evenodd" d="M-1.5 -1.5L-1.5 1.5L1.5 1.5L1.5 -1.5Z" fill="#28c6e6"/></g></g></g><path fill-rule="evenodd" d="M10 0L10 1L9 1L9 2L8 2L8 3L9 3L9 5L10 5L10 7L11 7L11 8L12 8L12 9L11 9L11 10L10 10L10 9L9 9L9 6L8 6L8 8L4 8L4 9L3 9L3 8L0 8L0 9L2 9L2 10L1 10L1 11L0 11L0 14L1 14L1 16L3 16L3 17L5 17L5 18L6 18L6 19L7 19L7 20L6 20L6 21L4 21L4 19L2 19L2 18L1 18L1 19L0 19L0 21L1 21L1 22L0 22L0 23L1 23L1 24L0 24L0 25L1 25L1 24L2 24L2 25L3 25L3 24L5 24L5 25L7 25L7 24L5 24L5 23L8 23L8 22L6 22L6 21L7 21L7 20L8 20L8 21L9 21L9 23L10 23L10 24L12 24L12 23L13 23L13 24L14 24L14 21L15 21L15 22L16 22L16 25L17 25L17 27L16 27L16 29L15 29L15 30L17 30L17 31L16 31L16 32L17 32L17 33L19 33L19 31L20 31L20 30L19 30L19 31L18 31L18 29L19 29L19 28L22 28L22 26L23 26L23 28L24 28L24 30L23 30L23 29L21 29L21 33L25 33L25 32L23 32L23 31L27 31L27 30L28 30L28 32L27 32L27 33L30 33L30 32L31 32L31 33L33 33L33 30L32 30L32 32L31 32L31 31L30 31L30 32L29 32L29 29L30 29L30 28L29 28L29 27L30 27L30 26L29 26L29 24L31 24L31 28L33 28L33 26L32 26L32 25L33 25L33 24L32 24L32 23L33 23L33 22L32 22L32 21L33 21L33 20L31 20L31 23L30 23L30 19L33 19L33 16L32 16L32 15L30 15L30 13L33 13L33 12L32 12L32 11L33 11L33 9L31 9L31 8L30 8L30 9L31 9L31 10L30 10L30 11L29 11L29 12L28 12L28 13L27 13L27 10L28 10L28 9L27 9L27 8L25 8L25 3L23 3L23 1L24 1L24 2L25 2L25 1L24 1L24 0L23 0L23 1L22 1L22 2L21 2L21 0L20 0L20 1L19 1L19 0L18 0L18 1L19 1L19 2L21 2L21 3L19 3L19 4L18 4L18 5L20 5L20 7L21 7L21 8L22 8L22 9L21 9L21 10L20 10L20 9L19 9L19 6L18 6L18 7L17 7L17 3L18 3L18 2L17 2L17 3L16 3L16 2L15 2L15 1L16 1L16 0L14 0L14 3L12 3L12 2L11 2L11 3L12 3L12 5L10 5L10 3L9 3L9 2L10 2L10 1L11 1L11 0ZM14 3L14 4L13 4L13 7L12 7L12 6L11 6L11 7L12 7L12 8L13 8L13 9L17 9L17 8L16 8L16 4L15 4L15 3ZM22 3L22 4L21 4L21 7L22 7L22 8L23 8L23 9L24 9L24 10L22 10L22 11L23 11L23 13L22 13L22 16L19 16L19 15L21 15L21 13L20 13L20 12L19 12L19 13L18 13L18 15L17 15L17 14L14 14L14 15L15 15L15 17L17 17L17 16L19 16L19 17L18 17L18 19L21 19L21 20L22 20L22 21L23 21L23 22L22 22L22 23L21 23L21 21L20 21L20 20L16 20L16 18L14 18L14 19L13 19L13 20L15 20L15 21L19 21L19 22L18 22L18 23L17 23L17 25L20 25L20 24L21 24L21 25L22 25L22 23L23 23L23 22L24 22L24 23L25 23L25 24L26 24L26 23L25 23L25 22L26 22L26 21L27 21L27 20L28 20L28 21L29 21L29 19L25 19L25 17L24 17L24 15L23 15L23 13L24 13L24 10L27 10L27 9L25 9L25 8L24 8L24 4L23 4L23 3ZM22 4L22 7L23 7L23 4ZM14 5L14 7L15 7L15 5ZM5 9L5 10L2 10L2 11L1 11L1 12L2 12L2 13L1 13L1 14L2 14L2 13L3 13L3 15L4 15L4 16L5 16L5 17L6 17L6 18L7 18L7 19L8 19L8 20L9 20L9 21L10 21L10 23L12 23L12 22L13 22L13 21L12 21L12 22L11 22L11 20L12 20L12 19L11 19L11 20L9 20L9 19L10 19L10 17L12 17L12 16L13 16L13 13L16 13L16 11L15 11L15 10L14 10L14 12L12 12L12 11L11 11L11 12L12 12L12 14L11 14L11 15L12 15L12 16L10 16L10 17L9 17L9 18L8 18L8 17L6 17L6 16L8 16L8 15L10 15L10 12L9 12L9 14L8 14L8 11L10 11L10 10L9 10L9 9L8 9L8 11L6 11L6 10L7 10L7 9ZM18 9L18 10L19 10L19 11L20 11L20 10L19 10L19 9ZM3 11L3 13L5 13L5 14L6 14L6 15L5 15L5 16L6 16L6 15L7 15L7 14L6 14L6 13L7 13L7 12L6 12L6 13L5 13L5 11ZM25 11L25 13L26 13L26 11ZM19 13L19 14L20 14L20 13ZM27 14L27 16L28 16L28 17L26 17L26 18L28 18L28 17L29 17L29 18L32 18L32 17L31 17L31 16L29 16L29 14ZM16 15L16 16L17 16L17 15ZM20 17L20 18L22 18L22 17ZM23 17L23 18L24 18L24 17ZM1 19L1 21L2 21L2 22L1 22L1 23L2 23L2 24L3 24L3 23L2 23L2 22L3 22L3 21L2 21L2 19ZM22 19L22 20L23 20L23 19ZM24 19L24 20L25 20L25 21L24 21L24 22L25 22L25 21L26 21L26 20L25 20L25 19ZM4 22L4 23L5 23L5 22ZM19 22L19 23L20 23L20 22ZM27 22L27 24L29 24L29 22ZM8 24L8 29L9 29L9 30L8 30L8 33L11 33L11 32L9 32L9 31L10 31L10 29L11 29L11 27L12 27L12 26L11 26L11 25L10 25L10 26L9 26L9 24ZM23 24L23 26L24 26L24 24ZM13 25L13 32L12 32L12 33L14 33L14 26L15 26L15 25ZM25 25L25 28L28 28L28 25ZM18 26L18 27L21 27L21 26ZM26 26L26 27L27 27L27 26ZM17 28L17 29L18 29L18 28ZM11 30L11 31L12 31L12 30ZM22 30L22 31L23 31L23 30Z" fill="#5cc7f5"/></g></g></svg>
